<?xml version="1.0" encoding="UTF-8"?>
<svg xmlns="http://www.w3.org/2000/svg" width="787" height="389" viewBox="0 0 787 389">
  <title>Group 12</title>
  <g fill="none" fill-rule="evenodd">
    <g stroke="#26292C" stroke-linecap="round" stroke-width="3">
      <path d="M362.643 267h80.506c.611 5.976 2.325 13.87 5.143 23.682 2.535 8.832 7.3 14.761 14.296 17.788a4 4 0 0 1 2.412 3.671V316H341v-4.127a4 4 0 0 1 2.117-3.53c6.815-3.634 11.505-9.521 14.07-17.66 2.822-8.958 4.64-16.852 5.456-23.683z" fill="#F7F7F7" stroke-linejoin="round"></path>
      <path d="M341.5 309.5h108.005"></path>
    </g>
    <g stroke="#26292C" stroke-linecap="round" stroke-width="3">
      <path d="M248.25 160.174a4.835 4.835 0 0 1 3.504 5.926l-15.01 56.805-9.475.058 15.018-59.223a4.922 4.922 0 0 1 5.963-3.566z" fill="#FFF"></path>
      <path d="M249.117 180.5l2.911.726m2.13-7.06l-9.919 39.782"></path>
    </g>
    <g stroke="#26292C" stroke-width="3">
      <path d="M161.665 150.28a4.825 4.825 0 0 1 5.786 3.614l16.032 69.348-10.282-.083-15.172-67.09a4.845 4.845 0 0 1 3.636-5.79z" fill="#F7F7F7"></path>
      <path d="M164.8 165.331l3.932-.946" stroke-linecap="round"></path>
    </g>
    <g stroke="#26292C" stroke-width="3">
      <path d="M182.432 156.423a4.93 4.93 0 0 1 5.501 4.357l6.748 61.642-9.254-.003-7.35-60.429a5 5 0 0 1 4.355-5.567z" fill="#F7F7F7"></path>
      <path d="M180.4 170.822l8.016-.86" stroke-linecap="round"></path>
    </g>
    <g stroke="#26292C" stroke-linecap="round" stroke-width="3">
      <path d="M221.529 140.481l7.682.672c.458 8.837.02 20.894-1.317 36.17a525.45 525.45 0 0 1-6.06 45.82l-7.484.027c.827-20.951 1.689-36.553 2.586-46.806.897-10.253 2.428-22.214 4.593-35.883z" fill="#FFF"></path>
      <path d="M227.447 164.677l-8.966-.784"></path>
      <path d="M228.98 140.189c3.995-1.345 6.402-6.186 7.066-13.779.823-9.403-4.616-19.952-9.758-20.401 1.106 3.826.807 7.247-.898 10.263-3.07 5.43-8.078 6.273-8.65 12.8-.386 4.424.855 8.792 4.382 10.615l7.859.502z" fill="#FFF"></path>
    </g>
    <path d="M633.47 308.865l10.465-55.119a4 4 0 0 0-3.93-4.746h-65.011a4 4 0 0 0-3.92 4.8l11.267 55.2a10 10 0 0 0 9.798 8h31.506a10 10 0 0 0 9.824-8.135z" stroke="#26292C" stroke-width="3" fill="#F7F7F7" stroke-linecap="round"></path>
    <path d="M607 223.458c16-18.525 24-39.213 24-62.065 0-22.852-8-43.54-24-62.066" fill="#08A742"></path>
    <path d="M609.049 220.268C623.683 202.352 631 182.43 631 160.5s-7.317-41.852-21.951-59.768a2 2 0 0 0-3.098 0C591.317 118.648 584 138.57 584 160.5s7.317 41.852 21.951 59.768a2 2 0 0 0 3.098 0z" stroke="#26292C" stroke-width="3"></path>
    <path d="M608.445 238.682c-6.44-16.763-17.044-29.407-31.809-37.932-14.765-8.525-31.016-11.385-48.754-8.582a2 2 0 0 0-1.555 2.693c6.441 16.763 17.044 29.407 31.81 37.932 14.764 8.525 31.016 11.385 48.754 8.582a2 2 0 0 0 1.554-2.693z" stroke="#26292C" stroke-width="3" fill="#FFF"></path>
    <path d="M607.327 238.682c6.441-16.763 17.044-29.407 31.81-37.932 14.764-8.525 31.016-11.385 48.754-8.582a2 2 0 0 1 1.554 2.693c-6.44 16.763-17.044 29.407-31.809 37.932-14.765 8.525-31.016 11.385-48.754 8.582a2 2 0 0 1-1.555-2.693z" stroke="#26292C" stroke-width="3" fill="#08A742"></path>
    <path d="M607 158v91m-51-40l50 30m53-30l-50 30" stroke="#26292C" stroke-width="3" stroke-linecap="round" stroke-linejoin="round"></path>
    <path d="M167 306v-81a3 3 0 0 1 3-3h70a3 3 0 0 1 3 3v81c0 5.523-4.477 10-10 10h-56c-5.523 0-10-4.477-10-10z" stroke="#26292C" stroke-width="3" fill="#F7F7F7"></path>
    <path fill-opacity=".85" fill="#FFF" d="M199 7h405v226H199z"></path>
    <path d="M211 2h385c6.627 0 12 5.373 12 12v241c0 6.627-5.373 12-12 12H211c-6.627 0-12-5.373-12-12V14c0-6.627 5.373-12 12-12zm1 24a3 3 0 0 0-3 3v200a3 3 0 0 0 3 3h383a3 3 0 0 0 3-3V29a3 3 0 0 0-3-3H212z" stroke="#26292C" stroke-width="3" fill="#F7F7F7"></path>
    <path d="M65 274H23c-11.598 0-21 9.402-21 21s9.402 21 21 21h476m22 1h242c12.15 0 22 9.85 22 22s-9.85 22-22 22H424c-14.36 0-26 11.64-26 26" stroke="#26292C" stroke-width="3" stroke-linecap="round"></path>
    <path d="M363.632 136.254c3.224 0 4.368 1.146 4.368 4.377v7.296c0 3.23-1.144 4.377-4.368 4.377h-5.304v10.319c0 3.23-1.144 4.377-4.368 4.377h-10.712c-3.328 0-4.368-1.146-4.368-4.377v-10.319h-31.512c-3.224 0-4.368-1.146-4.368-4.377v-6.88c0-3.439.208-4.69 2.288-7.086l31.616-37.834c2.08-2.397 3.328-3.127 6.76-3.127h10.296c3.224 0 4.368 1.146 4.368 4.377v38.877h5.304zM339 136v-18l-15 18h15zm35-17.946C374 101.51 384.765 91 403.5 91s29.5 10.51 29.5 27.054v22.788C433 157.595 422.235 168 403.5 168S374 157.595 374 140.842v-22.788zm39-.96c0-5.15-3.414-8.094-9-8.094s-9 2.944-9 8.095V141.8c0 5.256 3.414 8.2 9 8.2s9-2.944 9-8.2v-24.705zm86.632 19.16c3.224 0 4.368 1.146 4.368 4.377v7.296c0 3.23-1.144 4.377-4.368 4.377h-5.304v10.319c0 3.23-1.144 4.377-4.368 4.377h-10.712c-3.328 0-4.368-1.146-4.368-4.377v-10.319h-31.512c-3.224 0-4.368-1.146-4.368-4.377v-6.88c0-3.439.208-4.69 2.288-7.086l31.616-37.834c2.08-2.397 3.328-3.127 6.76-3.127h10.296c3.224 0 4.368 1.146 4.368 4.377v38.877h5.304zM475 136v-18l-15 18h15z" fill="#EEE"></path>
    <g transform="translate(88 243)" stroke="#26292C" stroke-width="3">
      <path d="M52 32V17.5C52 7.835 59.835 0 69.5 0S87 7.835 87 17.5V49c0 13.255-10.745 24-24 24H41C18.356 73 0 54.644 0 32h52z" fill="#FC0"></path>
      <circle fill="#D8D8D8" cx="74.5" cy="14.5" r="1.5"></circle>
      <path d="M87 22h14.002a1 1 0 0 1 .851 1.525L100.326 26a8.422 8.422 0 0 1-7.168 4H87v-8z" fill="#F94839"></path>
      <path d="M52 33.198C52 40.821 45.82 47 38.198 47H34c-7.732 0-14-6.268-14-14" stroke-linecap="round"></path>
    </g>
  </g>
</svg>
